# xmcd
#
# Track frame offsets:
#	150
#	11188
#	22118
#	31859
#	46096
#	56918
#	74152
#	83429
#	96961
#	109348
#	120930
#	136491
#
# Disc length: 1987 seconds
# Revision: 0
# Processed by: cddbd v1.5.2PL0 Copyright (c) Steve Scherf et al.
# Submitted via: dBpowerAMP V12.0
#
DISCID=a207c10c
DTITLE=Merle Monroe - Back To The Country
DYEAR=2019
DGENRE=Bluegrass
TTITLE0=Movin' On
TTITLE1=Back Where It's At
TTITLE2=Whippoorwill
TTITLE3=Beautiful Kentucky
TTITLE4=Blessed City
TTITLE5=Hungry Eyes
TTITLE6=Singing Crazy (Like Patsy Cline)
TTITLE7=Dad
TTITLE8=I'll Follow You
TTITLE9=He Will Roll You Over the Tide
TTITLE10=The Kindest Man
TTITLE11=This Town
EXTD=
EXTT0=
EXTT1=
EXTT2=
EXTT3=
EXTT4=
EXTT5=
EXTT6=
EXTT7=
EXTT8=
EXTT9=
EXTT10=
EXTT11=
PLAYORDER=
